<?xml version="1.0" encoding="utf-8"?>
<!-- Generator: Adobe Illustrator 26.5.0, SVG Export Plug-In . SVG Version: 6.00 Build 0)  -->
<svg version="1.1" id="Calque_1" xmlns="http://www.w3.org/2000/svg" xmlns:xlink="http://www.w3.org/1999/xlink" x="0px" y="0px"
	 viewBox="0 0 250 250" style="enable-background:new 0 0 250 250;" xml:space="preserve">
<style type="text/css">
	.st0{fill:#E6C80C;}
</style>
<ellipse id="XMLID_66_" transform="matrix(0.9821 -0.1882 0.1882 0.9821 -21.2866 25.6715)" class="st0" cx="124.53" cy="124.92" rx="52.34" ry="52.34"/>
<path id="XMLID_34_" class="st0" d="M118.96,48.9c0,3.08,2.49,5.57,5.57,5.57c3.08,0,5.57-2.49,5.57-5.57V25.3
	c0-3.08-2.49-5.57-5.57-5.57c-3.08,0-5.57,2.49-5.57,5.57V48.9z"/>
<path id="XMLID_33_" class="st0" d="M118.96,200.94v23.59c0,3.08,2.49,5.57,5.57,5.57c3.08,0,5.57-2.49,5.57-5.57v-23.59
	c0-3.08-2.49-5.57-5.57-5.57C121.46,195.37,118.96,197.87,118.96,200.94z"/>
<path id="XMLID_32_" class="st0" d="M86.52,64.65c0.94,0,1.9-0.24,2.78-0.75c2.66-1.54,3.58-4.94,2.04-7.61l-11.8-20.43
	c-1.54-2.66-4.95-3.58-7.61-2.04c-2.66,1.54-3.58,4.94-2.04,7.61l11.8,20.43C82.73,63.65,84.6,64.65,86.52,64.65z"/>
<path id="XMLID_31_" class="st0" d="M159.76,185.94c-2.66,1.54-3.58,4.94-2.04,7.61l11.8,20.43c1.03,1.79,2.9,2.79,4.83,2.79
	c0.94,0,1.9-0.24,2.78-0.75c2.66-1.54,3.58-4.94,2.04-7.61l-11.8-20.43C165.83,185.31,162.42,184.4,159.76,185.94z"/>
<path id="XMLID_30_" class="st0" d="M33.44,72.33c-1.54,2.66-0.62,6.07,2.04,7.61l20.43,11.8c0.88,0.51,1.83,0.75,2.78,0.75
	c1.92,0,3.8-1,4.83-2.79c1.54-2.66,0.62-6.07-2.04-7.61l-20.43-11.8C38.38,68.75,34.97,69.66,33.44,72.33z"/>
<path id="XMLID_29_" class="st0" d="M213.59,169.91l-20.43-11.8c-2.66-1.54-6.07-0.63-7.61,2.04c-1.54,2.66-0.62,6.07,2.04,7.61
	l20.43,11.8c0.88,0.51,1.83,0.75,2.78,0.75c1.92,0,3.8-1,4.83-2.79C217.16,174.85,216.25,171.44,213.59,169.91z"/>
<path id="XMLID_28_" class="st0" d="M54.08,124.92c0-3.08-2.49-5.57-5.57-5.57H24.91c-3.08,0-5.57,2.49-5.57,5.57
	c0,3.08,2.49,5.57,5.57,5.57h23.59C51.58,130.49,54.08,128,54.08,124.92z"/>
<path id="XMLID_27_" class="st0" d="M224.15,119.35h-23.59c-3.08,0-5.57,2.49-5.57,5.57c0,3.08,2.49,5.57,5.57,5.57h23.59
	c3.08,0,5.57-2.49,5.57-5.57C229.72,121.85,227.22,119.35,224.15,119.35z"/>
<path id="XMLID_26_" class="st0" d="M55.91,158.11l-20.43,11.8c-2.66,1.54-3.58,4.94-2.04,7.61c1.03,1.79,2.9,2.79,4.83,2.79
	c0.94,0,1.9-0.24,2.78-0.75l20.43-11.8c2.66-1.54,3.58-4.94,2.04-7.61C61.98,157.48,58.57,156.57,55.91,158.11z"/>
<path id="XMLID_25_" class="st0" d="M208.02,70.29l-20.43,11.8c-2.66,1.54-3.58,4.94-2.04,7.61c1.03,1.79,2.9,2.79,4.83,2.79
	c0.95,0,1.9-0.24,2.78-0.75l20.43-11.8c2.66-1.54,3.58-4.94,2.04-7.61C214.09,69.66,210.68,68.75,208.02,70.29z"/>
<path id="XMLID_24_" class="st0" d="M81.7,187.97l-11.8,20.43c-1.54,2.66-0.62,6.07,2.04,7.61c0.88,0.51,1.83,0.75,2.78,0.75
	c1.92,0,3.8-1,4.83-2.79l11.8-20.43c1.54-2.66,0.63-6.07-2.04-7.61C86.64,184.4,83.23,185.31,81.7,187.97z"/>
<path id="XMLID_23_" class="st0" d="M159.76,63.91c0.88,0.51,1.83,0.75,2.78,0.75c1.92,0,3.8-1,4.83-2.79l11.8-20.43
	c1.54-2.66,0.63-6.07-2.04-7.61c-2.66-1.54-6.07-0.63-7.61,2.04l-11.8,20.43C156.18,58.96,157.09,62.37,159.76,63.91z"/>
<g>
</g>
<g>
</g>
<g>
</g>
<g>
</g>
<g>
</g>
<g>
</g>
</svg>
