<?xml version="1.0" encoding="utf-8"?>
<!-- Generator: Adobe Illustrator 26.5.0, SVG Export Plug-In . SVG Version: 6.00 Build 0)  -->
<svg version="1.1" id="Calque_1" xmlns="http://www.w3.org/2000/svg" xmlns:xlink="http://www.w3.org/1999/xlink" x="0px" y="0px"
	 viewBox="0 0 250 250" style="enable-background:new 0 0 250 250;" xml:space="preserve">
<style type="text/css">
	.st0{fill:#E6C80C;}
</style>
<path id="XMLID_72_" class="st0" d="M124.53,121.22c-31.59,0-57.63,24.26-60.45,55.13h120.9
	C182.16,145.48,156.12,121.22,124.53,121.22z"/>
<path id="XMLID_22_" class="st0" d="M118.96,67.92v27c0,3.08,2.49,5.57,5.57,5.57c3.08,0,5.57-2.49,5.57-5.57v-27
	c0-3.08-2.49-5.57-5.57-5.57C121.46,62.35,118.96,64.84,118.96,67.92z"/>
<path id="XMLID_21_" class="st0" d="M64.74,78.37c-2.66,1.54-3.58,4.94-2.04,7.61l13.5,23.38c1.03,1.79,2.9,2.79,4.83,2.79
	c0.94,0,1.9-0.24,2.78-0.75c2.66-1.54,3.58-4.94,2.04-7.61l-13.5-23.38C70.81,77.74,67.41,76.83,64.74,78.37z"/>
<path id="XMLID_20_" class="st0" d="M51.97,133.6l-23.38-13.5c-2.66-1.54-6.07-0.62-7.61,2.04c-1.54,2.66-0.63,6.07,2.04,7.61
	l23.38,13.5c0.88,0.51,1.83,0.75,2.78,0.75c1.92,0,3.8-1,4.83-2.79C55.54,138.54,54.63,135.14,51.97,133.6z"/>
<path id="XMLID_19_" class="st0" d="M43.1,181.92c0-3.08-2.49-5.57-5.57-5.57h-27c-3.08,0-5.57,2.49-5.57,5.57
	c0,3.08,2.49,5.57,5.57,5.57h27C40.6,187.49,43.1,185,43.1,181.92z"/>
<path id="XMLID_18_" class="st0" d="M238.54,176.35h-27c-3.08,0-5.57,2.49-5.57,5.57c0,3.08,2.49,5.57,5.57,5.57h27
	c3.08,0,5.57-2.49,5.57-5.57C244.11,178.85,241.61,176.35,238.54,176.35z"/>
<path id="XMLID_17_" class="st0" d="M202.66,143.24l23.38-13.5c2.66-1.54,3.58-4.94,2.04-7.61c-1.54-2.66-4.95-3.58-7.61-2.04
	l-23.38,13.5c-2.66,1.54-3.58,4.94-2.04,7.61c1.03,1.79,2.9,2.79,4.83,2.79C200.83,143.99,201.79,143.75,202.66,143.24z"/>
<path id="XMLID_16_" class="st0" d="M165.25,111.4c0.88,0.51,1.83,0.75,2.78,0.75c1.92,0,3.8-1,4.83-2.79l13.5-23.38
	c1.54-2.66,0.63-6.07-2.04-7.61c-2.66-1.54-6.07-0.63-7.61,2.04l-13.5,23.38C161.67,106.45,162.58,109.86,165.25,111.4z"/>
<g>
</g>
<g>
</g>
<g>
</g>
<g>
</g>
<g>
</g>
<g>
</g>
</svg>
