<?xml version="1.0" encoding="utf-8"?>
<!-- Generator: Adobe Illustrator 26.5.0, SVG Export Plug-In . SVG Version: 6.00 Build 0)  -->
<svg version="1.1" id="Calque_1" xmlns="http://www.w3.org/2000/svg" xmlns:xlink="http://www.w3.org/1999/xlink" x="0px" y="0px"
	 viewBox="0 0 250 250" style="enable-background:new 0 0 250 250;" xml:space="preserve">
<style type="text/css">
	.st0{fill:#3691A6;}
	.st1{fill:#4BC0E2;}
</style>
<path id="XMLID_77_" class="st0" d="M218.98,109.61c0-11.06-5.07-21.27-13.92-28c-0.95-0.72-1.64-1.74-1.98-2.88
	c-5.09-17.6-21.46-29.9-39.81-29.9c-3.38,0-6.75,0.41-10.01,1.22c-2.25,0.56-4.61-0.34-5.93-2.25
	c-8.56-12.44-22.67-19.86-37.75-19.86c-11.46,0-22.43,4.26-30.88,11.98c-8.4,7.68-13.62,18.12-14.7,29.39
	c-0.19,1.95-1.38,3.66-3.15,4.5c-0.55,0.26-1.11,0.55-1.65,0.85c-0.46,0.26-0.96,0.45-1.48,0.56C50,76.94,42.98,81.29,37.96,87.45
	c-5.16,6.33-7.88,14-7.88,22.16c0,19.44,15.9,35.25,35.45,35.25h118.01C203.08,144.86,218.98,129.05,218.98,109.61z"/>
<path id="XMLID_60_" class="st1" d="M80.08,195.52c0.54,0,1.09-0.08,1.63-0.25c2.94-0.9,4.59-4.02,3.69-6.96l-6.71-21.88
	c-0.9-2.94-4.02-4.59-6.96-3.69c-2.94,0.9-4.59,4.02-3.69,6.96l6.71,21.88C75.5,193.98,77.7,195.52,80.08,195.52z"/>
<path id="XMLID_59_" class="st1" d="M110.64,221.91c0.54,0,1.09-0.08,1.63-0.25c2.94-0.9,4.59-4.02,3.69-6.96l-6.71-21.88
	c-0.9-2.94-4.02-4.59-6.96-3.69c-2.94,0.9-4.59,4.02-3.69,6.96l6.71,21.88C106.06,220.37,108.26,221.91,110.64,221.91z"/>
<path id="XMLID_58_" class="st1" d="M149.5,187.73c-2.94,0.9-4.59,4.02-3.69,6.96l6.71,21.88c0.73,2.4,2.94,3.94,5.32,3.94
	c0.54,0,1.09-0.08,1.63-0.25c2.94-0.9,4.59-4.02,3.69-6.96l-6.71-21.88C155.56,188.49,152.44,186.83,149.5,187.73z"/>
<path id="XMLID_57_" class="st1" d="M126.72,195.52c0.54,0,1.09-0.08,1.63-0.25c2.94-0.9,4.59-4.02,3.69-6.96l-6.71-21.88
	c-0.9-2.94-4.02-4.59-6.96-3.69c-2.94,0.9-4.59,4.02-3.69,6.96l6.71,21.88C122.14,193.98,124.34,195.52,126.72,195.52z"/>
<path id="XMLID_56_" class="st1" d="M173.36,195.52c0.54,0,1.09-0.08,1.63-0.25c2.94-0.9,4.59-4.02,3.69-6.96l-6.71-21.88
	c-0.9-2.94-4.02-4.59-6.96-3.69c-2.94,0.9-4.59,4.02-3.69,6.96l6.71,21.88C168.78,193.98,170.98,195.52,173.36,195.52z"/>
<g>
</g>
<g>
</g>
<g>
</g>
<g>
</g>
<g>
</g>
<g>
</g>
</svg>
