<?xml version="1.0" encoding="utf-8"?>
<!-- Generator: Adobe Illustrator 26.5.0, SVG Export Plug-In . SVG Version: 6.00 Build 0)  -->
<svg version="1.1" id="Calque_1" xmlns="http://www.w3.org/2000/svg" xmlns:xlink="http://www.w3.org/1999/xlink" x="0px" y="0px"
	 viewBox="0 0 250 250" style="enable-background:new 0 0 250 250;" xml:space="preserve">
<style type="text/css">
	.st0{fill:#4BC0E2;}
</style>
<path id="XMLID_73_" class="st0" d="M204.1,82.45c-0.95-0.72-1.64-1.74-1.98-2.88c-5.09-17.6-21.46-29.9-39.81-29.9
	c-3.38,0-6.75,0.41-10.01,1.22c-2.25,0.56-4.61-0.34-5.93-2.25c-8.56-12.44-22.67-19.86-37.75-19.86
	c-11.46,0-22.43,4.26-30.88,11.98c-8.4,7.68-13.62,18.12-14.7,29.4c-0.19,1.95-1.38,3.66-3.15,4.5c-0.55,0.26-1.11,0.55-1.65,0.85
	c-0.46,0.26-0.96,0.45-1.48,0.56C49.04,77.79,42.02,82.13,37,88.29c-5.16,6.33-7.88,14-7.88,22.16c0,19.44,15.9,35.25,35.45,35.25
	h118.01c19.55,0,35.45-15.81,35.45-35.25C218.02,99.39,212.95,89.19,204.1,82.45z"/>
<path id="XMLID_7_" class="st0" d="M202.62,169.7c0-3.08-2.49-5.57-5.57-5.57H50.77c-3.08,0-5.57,2.49-5.57,5.57
	c0,3.08,2.49,5.57,5.57,5.57h146.27C200.12,175.27,202.62,172.78,202.62,169.7z"/>
<path id="XMLID_6_" class="st0" d="M188.99,209.93H42.71c-3.08,0-5.57,2.49-5.57,5.57c0,3.08,2.49,5.57,5.57,5.57h146.27
	c3.08,0,5.57-2.49,5.57-5.57C194.56,212.42,192.06,209.93,188.99,209.93z"/>
<path id="XMLID_5_" class="st0" d="M75.84,187.34c-3.08,0-5.57,2.49-5.57,5.57c0,3.08,2.49,5.57,5.57,5.57h53.61
	c3.08,0,5.57-2.49,5.57-5.57c0-3.08-2.49-5.57-5.57-5.57H75.84z"/>
<path id="XMLID_4_" class="st0" d="M214.37,187.34h-53.61c-3.08,0-5.57,2.49-5.57,5.57c0,3.08,2.49,5.57,5.57,5.57h53.61
	c3.08,0,5.57-2.49,5.57-5.57C219.94,189.83,217.45,187.34,214.37,187.34z"/>
<g>
</g>
<g>
</g>
<g>
</g>
<g>
</g>
<g>
</g>
<g>
</g>
</svg>
