<?xml version="1.0" encoding="utf-8"?>
<!-- Generator: Adobe Illustrator 26.5.0, SVG Export Plug-In . SVG Version: 6.00 Build 0)  -->
<svg version="1.1" id="Calque_1" xmlns="http://www.w3.org/2000/svg" xmlns:xlink="http://www.w3.org/1999/xlink" x="0px" y="0px"
	 viewBox="0 0 250 250" style="enable-background:new 0 0 250 250;" xml:space="preserve">
<style type="text/css">
	.st0{fill:#4BC0E2;}
	.st1{fill:#3691A6;}
</style>
<path id="XMLID_79_" class="st0" d="M95.8,143.35c0-21.9,19.81-39.71,44.15-39.71c5.26,0,10.36,0.81,15.21,2.42
	c5.03-5.15,11.56-8.86,18.78-10.77c-6.43-13-19.89-21.62-34.74-21.62c-3.16,0-6.3,0.38-9.35,1.14c-2.25,0.56-4.61-0.34-5.93-2.25
	c-8.01-11.63-21.21-18.58-35.3-18.58c-10.72,0-20.98,3.98-28.88,11.21c-7.86,7.18-12.74,16.94-13.75,27.49
	c-0.19,1.95-1.38,3.66-3.15,4.5c-0.52,0.25-1.03,0.51-1.54,0.79c-0.47,0.26-0.96,0.45-1.48,0.56c-7.21,1.61-13.76,5.66-18.45,11.41
	c-4.81,5.91-7.36,13.06-7.36,20.68c0,18.14,14.84,32.89,33.08,32.89h39.72c1.1-6.77,4.19-13.14,9.02-18.47
	C95.81,144.48,95.8,143.91,95.8,143.35z"/>
<path id="XMLID_39_" class="st1" d="M215.97,144.29c-2.89-1.05-4.39-4.24-3.34-7.13c0.86-2.38,1.29-4.85,1.29-7.36
	c0-10.57-7.71-19.61-18.53-23.18c-3.19-1.05-6.64-1.63-10.25-1.63c-1.89,0-3.75,0.17-5.57,0.47c-7.43,1.26-14.06,5.02-18.37,10.59
	c-1.56,2.01-4.27,2.71-6.6,1.7c-4.58-1.97-9.51-2.97-14.65-2.97c-18.2,0-33.01,12.82-33.01,28.57c0,1.01,0.06,2.05,0.19,3.07
	c0.22,1.74-0.4,3.48-1.67,4.7c-3.68,3.54-6.17,7.82-7.29,12.4c-0.44,1.8-0.67,3.65-0.67,5.52c0,1.93,0.24,3.81,0.69,5.62
	c3,12.1,15.46,21.2,30.34,21.2h75.47c17.11,0,31.04-12.03,31.04-26.82C235.05,158.2,227.56,148.48,215.97,144.29z"/>
<g>
</g>
<g>
</g>
<g>
</g>
<g>
</g>
<g>
</g>
<g>
</g>
</svg>
