<?xml version="1.0" encoding="utf-8"?>
<!-- Generator: Adobe Illustrator 26.5.0, SVG Export Plug-In . SVG Version: 6.00 Build 0)  -->
<svg version="1.1" id="Calque_1" xmlns="http://www.w3.org/2000/svg" xmlns:xlink="http://www.w3.org/1999/xlink" x="0px" y="0px"
	 viewBox="0 0 250 250" style="enable-background:new 0 0 250 250;" xml:space="preserve">
<style type="text/css">
	.st0{fill:#4BC0E2;}
</style>
<path id="XMLID_75_" class="st0" d="M205.06,89.84c-0.95-0.72-1.64-1.74-1.98-2.88c-5.09-17.6-21.46-29.9-39.81-29.9
	c-3.38,0-6.75,0.41-10.01,1.22c-2.25,0.56-4.61-0.34-5.93-2.25c-8.56-12.44-22.67-19.86-37.75-19.86
	c-11.46,0-22.43,4.26-30.88,11.98c-8.4,7.68-13.62,18.12-14.7,29.4c-0.19,1.95-1.38,3.66-3.15,4.5c-0.55,0.26-1.11,0.55-1.65,0.85
	c-0.46,0.26-0.96,0.45-1.48,0.56C50,85.18,42.98,89.52,37.96,95.68c-5.16,6.33-7.88,14-7.88,22.16c0,19.44,15.9,35.25,35.45,35.25
	h118.01c19.55,0,35.45-15.81,35.45-35.25C218.98,106.79,213.91,96.58,205.06,89.84z"/>
<path id="XMLID_10_" class="st0" d="M61.78,176.31c-2.75,0-4.97,2.23-4.97,4.97v7.66l-8.14-2.21c-2.65-0.72-5.38,0.85-6.1,3.5
	c-0.72,2.65,0.85,5.38,3.5,6.1l7.83,2.12l-4.74,7.3c-1.49,2.3-0.84,5.38,1.46,6.88c0.84,0.54,1.77,0.8,2.7,0.8
	c1.63,0,3.22-0.8,4.18-2.27l4.35-6.7l4.71,7.01c0.96,1.43,2.53,2.2,4.13,2.2c0.95,0,1.92-0.27,2.77-0.85
	c2.28-1.53,2.89-4.62,1.35-6.9l-5.04-7.51l7.72-2.09c2.65-0.72,4.22-3.45,3.5-6.1c-0.72-2.65-3.45-4.22-6.1-3.5l-8.14,2.21v-7.66
	C66.76,178.53,64.53,176.31,61.78,176.31z"/>
<path id="XMLID_9_" class="st0" d="M124.53,176.31c-2.75,0-4.97,2.23-4.97,4.97v7.66l-8.14-2.21c-2.65-0.72-5.38,0.85-6.1,3.5
	c-0.72,2.65,0.85,5.38,3.5,6.1l7.83,2.12l-4.74,7.3c-1.49,2.3-0.84,5.38,1.46,6.88c0.84,0.54,1.77,0.8,2.7,0.8
	c1.63,0,3.22-0.8,4.18-2.27l4.35-6.7l4.71,7.01c0.96,1.43,2.53,2.2,4.13,2.2c0.95,0,1.92-0.27,2.77-0.85
	c2.28-1.53,2.89-4.62,1.35-6.9l-5.04-7.51l7.72-2.09c2.65-0.72,4.22-3.45,3.5-6.1c-0.72-2.65-3.45-4.22-6.1-3.5l-8.14,2.21v-7.66
	C129.5,178.53,127.28,176.31,124.53,176.31z"/>
<path id="XMLID_8_" class="st0" d="M187.28,176.31c-2.75,0-4.97,2.23-4.97,4.97v7.66l-8.14-2.21c-2.65-0.72-5.38,0.85-6.1,3.5
	c-0.72,2.65,0.85,5.38,3.5,6.1l7.83,2.12l-4.74,7.3c-1.49,2.3-0.84,5.38,1.46,6.88c0.84,0.54,1.77,0.8,2.7,0.8
	c1.63,0,3.22-0.8,4.18-2.27l4.35-6.7l4.71,7.01c0.96,1.43,2.53,2.2,4.13,2.2c0.95,0,1.92-0.27,2.77-0.85
	c2.28-1.53,2.89-4.62,1.35-6.9l-5.04-7.51l7.72-2.09c2.65-0.72,4.22-3.45,3.5-6.1c-0.72-2.65-3.45-4.22-6.1-3.5l-8.14,2.21v-7.66
	C192.25,178.53,190.02,176.31,187.28,176.31z"/>
<g>
</g>
<g>
</g>
<g>
</g>
<g>
</g>
<g>
</g>
<g>
</g>
</svg>
