<?xml version="1.0" encoding="utf-8"?>
<!-- Generator: Adobe Illustrator 26.5.0, SVG Export Plug-In . SVG Version: 6.00 Build 0)  -->
<svg version="1.1" id="Calque_1" xmlns="http://www.w3.org/2000/svg" xmlns:xlink="http://www.w3.org/1999/xlink" x="0px" y="0px"
	 viewBox="0 0 250 250" style="enable-background:new 0 0 250 250;" xml:space="preserve">
<style type="text/css">
	.st0{fill:#4BC0E2;}
	.st1{fill:#E6C80C;}
</style>
<path id="XMLID_69_" class="st0" d="M86.7,144.49l24.78-72.96h31.31l-18.26,49.27h37.83l-23.05,35.16h44.23
	c19.55,0,35.45-15.81,35.45-35.25c0-11.06-5.07-21.27-13.92-28c-0.95-0.72-1.64-1.74-1.98-2.88c-5.09-17.6-21.46-29.9-39.81-29.9
	c-3.38,0-6.75,0.41-10.01,1.22c-2.25,0.56-4.61-0.34-5.93-2.25c-8.56-12.44-22.67-19.86-37.75-19.86
	c-11.46,0-22.43,4.26-30.88,11.98c-8.4,7.68-13.62,18.12-14.7,29.4c-0.19,1.95-1.38,3.66-3.15,4.5c-0.55,0.26-1.1,0.54-1.65,0.85
	c-0.46,0.26-0.96,0.45-1.48,0.56C50,88.04,42.98,92.39,37.96,98.55c-5.16,6.33-7.88,14-7.88,22.16c0,19.44,15.9,35.25,35.45,35.25
	h51.56l2.88-11.47H86.7z"/>
<polygon id="XMLID_40_" class="st1" points="124.53,120.8 142.79,71.53 111.49,71.53 86.7,144.49 119.97,144.49 117.09,155.96 
	114.3,167.1 103.33,210.81 132,167.1 139.3,155.96 162.36,120.8 "/>
<g>
</g>
<g>
</g>
<g>
</g>
<g>
</g>
<g>
</g>
<g>
</g>
</svg>
