<?xml version="1.0" encoding="utf-8"?>
<!-- Generator: Adobe Illustrator 26.5.0, SVG Export Plug-In . SVG Version: 6.00 Build 0)  -->
<svg version="1.1" xmlns="http://www.w3.org/2000/svg" xmlns:xlink="http://www.w3.org/1999/xlink" x="0px" y="0px"
	 viewBox="0 0 762.35 209.41" style="enable-background:new 0 0 762.35 209.41;" xml:space="preserve">
<style type="text/css">
	.st0{fill:#FFFFFF;stroke:#878787;stroke-width:4;stroke-miterlimit:10;}
	.st1{fill:#BC1637;}
	.st2{fill:#FFFFFF;}
</style>
<g id="Calque_1">
	<rect x="10.59" y="15.59" class="st0" width="370" height="178.82"/>
</g>
<g id="Calque_1_-_copie">
	<rect x="382.59" y="13.56" class="st1" width="370" height="183"/>
	<g>
		<g>
			<path class="st1" d="M103.82,65.71l-7.69,7.81v57.67l6.91,6.57H77.21l7.81-6.57V93.39l-17.8,48.96h-5.39l-0.45-1.52h4.89
				l18.75-52.22v-8.59l-20.89,57.67h-3.93L44.81,92.38v29.7c0,3.97,0.26,6.78,0.79,8.42c0.52,1.65,1.76,3.46,3.71,5.45l5.05,6.4
				H24.98l-1.01-1.52h27.57l-2.08-3.09H24.42l1.18-0.62c4.16-2.28,6.9-4.59,8.23-6.93c1.33-2.34,1.99-6.04,1.99-11.09V72.67
				l-7.41-6.96h29.03l-8.14,7.36l15.89,47l2.02-4.88L52.84,73.51l7.36-5.45l1.18,0.95l-7.02,4.94l13.36,39.14L82.2,73.06l-6.85-7.36
				H103.82z M40.26,79.01v40.32c0,6.18,0.59,10.43,1.77,12.75c1.18,2.32,3.62,4.01,7.33,5.05l-0.51-0.84
				c-3.67-2.55-5.5-6.21-5.5-11.01v-4.16V87.94L40.26,79.01z M106.97,70.08l-6.35,4.55v56.6l9.77,11.12H80.57l-0.79-1.52h27.18
				l-7.81-8.82V73.68l6.63-4.55L106.97,70.08z"/>
			<path class="st1" d="M173.17,65.71l-0.9,1.07c-3.82,4.68-6.85,10.05-9.1,16.12c-0.37-0.86-0.66-1.5-0.84-1.91
				c-2.06-4.49-4.27-7.39-6.63-8.7c-2.36-1.31-6.59-1.97-12.69-1.97c-2.81,0-6.18,0.09-10.11,0.28v25.83h3.59V73.57
				c2.84-0.26,5.56-0.39,8.14-0.39c4.75,0,8.25,0.51,10.5,1.52s4.25,2.98,6.01,5.9c-0.52-0.37-0.9-0.65-1.12-0.84
				c-3.03-2.4-5.22-3.82-6.57-4.27s-4.01-0.67-7.97-0.67c-1.2,0-3.33,0.08-6.4,0.22l-1.18,0.06v21.34h10.33l7.24-9.94v24.2
				l-7.24-9.38h-15.33v31.5h3.59v-28.86h12.19l1.46,1.46h-12.24v27.4c7.64,0,13.06-0.54,16.28-1.63c3.22-1.08,5.75-3.22,7.58-6.4
				l2.98-5.11c0.11-0.22,0.34-0.64,0.67-1.24c0.97,4.12,2.18,7.41,3.62,9.88c1.44,2.47,3.83,5.35,7.16,8.65h-62.95l8.54-6.51V105.4
				c-3.14,0.37-5.99,1.35-8.54,2.92l-0.79-1.18c2.28-1.65,5.39-2.71,9.32-3.2v-2.64c-0.64-0.07-1.09-0.11-1.35-0.11
				c-3.82,0-7.3,1.4-10.44,4.21c1.72-5.99,5.65-8.98,11.79-8.98V72.44l-8.54-6.74H173.17z M182.6,137.3l-2.92,5.05h-61.32l-0.9-1.52
				h61.49l1.91-3.54c-5.39-4.98-9.19-10.29-11.4-15.95l1.8,0.67c2.06,4.79,5.54,9.58,10.44,14.38L182.6,137.3z M159.36,88.33v24.82
				l-1.4-0.73V87.6L159.36,88.33z M175.87,69.64l-0.39,0.51c-4.57,6.14-7.62,11.29-9.15,15.44l-0.95-1.18
				c2.51-5.8,5.75-11.12,9.71-15.95L175.87,69.64z"/>
			<path class="st1" d="M185.47,65.71h22.12c10.82,0,18.83,2.08,24.03,6.23c7.75,6.14,11.62,15.76,11.62,28.86
				c0,13.59-3.39,23.42-10.16,29.48c-3.07,2.73-6.5,4.66-10.3,5.78c-3.8,1.12-8.84,1.68-15.13,1.68h-23.86l7.69-5.9V72.16
				L185.47,65.71z M187.26,142.35l-0.84-1.52h20.55c10.11,0,17.78-1.4,23.02-4.21c11.27-5.99,16.9-17.58,16.9-34.76
				c0-11.49-2.53-20.03-7.58-25.61l-2.25-2.47c-0.08-0.07-0.3-0.34-0.67-0.79c7.94,4.98,11.9,14.51,11.9,28.58
				c0,14.79-3.93,25.68-11.79,32.68c-6.03,5.39-15.87,8.09-29.54,8.09H187.26z M202.48,70.42v63h3.09v-59.3
				c1.95-0.3,3.72-0.45,5.33-0.45c3.07,0,5.49,0.31,7.27,0.93c1.78,0.62,3.57,1.75,5.36,3.4c-3.97-1.87-8.22-2.81-12.75-2.81
				c-0.97,0-2.25,0.08-3.82,0.22v58c4.19,0,7.37-0.35,9.55-1.04c2.17-0.69,4.23-2.03,6.18-4.02c5.43-5.5,8.14-14.75,8.14-27.74
				c0-12.69-2.94-21.36-8.82-26c-3.56-2.81-9.19-4.21-16.9-4.21H202.48z"/>
			<path class="st1" d="M253.24,65.71h26.62l-7.52,7.64v58.45l7.07,5.95h-26.17l7.8-6.46V72.72L253.24,65.71z M282.39,68.91
				l-5.73,5.67v57.22l9.43,10.56h-29.2l-1.4-1.52h27.29l-7.69-8.48V74.07l6.34-6.29L282.39,68.91z"/>
			<path class="st1" d="M340.39,65.71l-5.84,6.63l9.21,24.48l2.25-1.24l-8.31-22.12l5.95-6.85l1.46,0.62l-5.67,6.57l7.86,20.94
				c0.45-0.34,0.71-0.54,0.79-0.62l1.85-1.57c1.12-0.9,1.83-1.53,2.13-1.91c0.97,4.27,2.47,8.09,4.49,11.46
				c-1.09-0.07-1.87-0.11-2.36-0.11c-3.56,0-6.16,0.56-7.81,1.68l10.16,27.57l8.42,6.51h-28.36l7.75-6.51l-6.23-16.4
				c-4.12,4.16-7.28,8.11-9.49,11.85l-1.29-0.34c2.21-3.67,5.5-7.77,9.88-12.3l0.45-0.56l-1.07-2.47
				c-4.46,3.71-8.14,8.01-11.06,12.92l-1.01-1.63c-1.95-3.11-4.44-6.64-7.47-10.61l-0.56-0.67c-2.88,6.4-4.32,11.6-4.32,15.61
				c0,2.36,0.4,4.35,1.21,5.98c0.8,1.63,2.74,4.35,5.81,8.17c0.26,0.34,0.67,0.86,1.24,1.57h-30.32l-1.12-1.52h28.58l-0.96-1.18
				c-2.47-3-4.09-5.33-4.86-6.99c-0.77-1.67-1.15-3.62-1.15-5.87c0-3.82,1.55-9.51,4.66-17.07l-2.47-2.58
				c-0.49,1.2-1.1,2.96-1.85,5.28l-1.85,5.73c-1.01,3.07-1.52,5.62-1.52,7.64c0,2.1,0.36,3.84,1.07,5.22
				c0.71,1.38,2.21,3.28,4.49,5.67c0.22,0.22,0.56,0.58,1.01,1.07h-28.08c5.35-2.77,9.59-6.49,12.72-11.17
				c3.12-4.68,6.22-11.9,9.29-21.67l0.22-0.79c-1.98-1.68-4.85-2.71-8.59-3.09c2.06-3.07,3.65-6.27,4.77-9.6
				c0.52,0.49,0.84,0.79,0.96,0.9l2.53,2.36c0.86,0.82,1.89,1.67,3.09,2.53l1.01-2.47l-0.67-0.56c-1.87-1.65-3.44-2.98-4.72-3.99
				l-0.5-0.39l0.9-1.24c1.98,1.31,3.89,2.83,5.73,4.55l7.64-21l-5.95-6.4H340.39z M323.99,77.22l-8.93,23.58
				c2.84,2.92,5.3,5.8,7.36,8.65l2.58,3.59c0.04,0.04,0.22,0.28,0.56,0.73c0.34-0.34,0.52-0.54,0.56-0.62l0.79-0.96
				c0.11-0.15,0.32-0.39,0.62-0.73c-2.62-4.04-5.67-7.69-9.15-10.95l7.19-18.98L323.99,77.22z M326.52,83.73l-6.18,16.28
				c0.34,0.37,0.52,0.6,0.56,0.67l2.3,2.58c1.23,1.35,2.81,3.44,4.72,6.29l0.56,0.84c1.61-2.02,3.52-4.02,5.73-6.01L326.52,83.73z
				 M357.01,93.33c0.82,3.37,2.88,7.99,6.18,13.87c-0.82-0.11-1.29-0.17-1.4-0.17l-4.55-0.39c-2.06-0.19-3.56-0.28-4.49-0.28
				c-0.15,0-0.52,0.02-1.12,0.06l9.38,24.88l12.52,11.06h-32.51l-1.07-1.52h29.82l-10.11-8.93l-10-26.45
				c1.27-0.34,2.73-0.51,4.38-0.51c2.02,0,4.27,0.17,6.74,0.51l-0.67-1.24c-2.4-4.42-4.01-8.4-4.83-11.96L357.01,93.33z"/>
		</g>
	</g>
	<g>
		<path class="st2" d="M529.7,65.71l-7.69,7.81v57.67l6.91,6.57h-25.83l7.81-6.57V93.39l-17.8,48.96h-5.39l-0.45-1.52h4.88
			l18.76-52.22v-8.59L490,137.69h-3.93l-15.39-45.32v29.7c0,3.97,0.26,6.78,0.79,8.42s1.76,3.46,3.71,5.45l5.05,6.4h-29.37
			l-1.01-1.52h27.57l-2.08-3.09h-25.04l1.18-0.62c4.16-2.28,6.9-4.59,8.23-6.93c1.33-2.34,1.99-6.04,1.99-11.09V72.67l-7.41-6.96
			h29.03l-8.14,7.36l15.89,47l2.02-4.88l-14.38-41.67l7.36-5.45l1.18,0.95l-7.02,4.94l13.36,39.14l14.49-40.04l-6.85-7.36H529.7z
			 M466.14,79.01v40.32c0,6.18,0.59,10.43,1.77,12.75c1.18,2.32,3.62,4.01,7.33,5.05l-0.51-0.84c-3.67-2.54-5.5-6.21-5.5-11.01
			v-4.16V87.94L466.14,79.01z M532.85,70.08l-6.35,4.55v56.6l9.77,11.12h-29.82l-0.79-1.52h27.18l-7.8-8.82V73.68l6.62-4.55
			L532.85,70.08z"/>
		<path class="st2" d="M590.18,65.71l-5.84,6.63l9.21,24.48l2.25-1.24l-8.31-22.12l5.95-6.85l1.46,0.62l-5.67,6.57l7.86,20.94
			c0.45-0.34,0.71-0.54,0.79-0.62l1.85-1.57c1.12-0.9,1.83-1.53,2.13-1.91c0.97,4.27,2.47,8.09,4.49,11.46
			c-1.09-0.07-1.87-0.11-2.36-0.11c-3.56,0-6.16,0.56-7.81,1.68l10.16,27.57l8.42,6.51h-28.36l7.75-6.51l-6.23-16.4
			c-4.12,4.16-7.28,8.11-9.49,11.85l-1.29-0.34c2.21-3.67,5.5-7.77,9.88-12.3l0.45-0.56l-1.07-2.47
			c-4.46,3.71-8.14,8.01-11.06,12.92l-1.01-1.63c-1.95-3.11-4.44-6.64-7.47-10.61l-0.56-0.67c-2.88,6.4-4.32,11.6-4.32,15.61
			c0,2.36,0.4,4.35,1.21,5.98c0.8,1.63,2.74,4.35,5.81,8.17c0.26,0.34,0.67,0.86,1.24,1.57h-30.32l-1.12-1.52h28.58l-0.96-1.18
			c-2.47-2.99-4.09-5.32-4.86-6.99c-0.77-1.67-1.15-3.62-1.15-5.87c0-3.82,1.55-9.51,4.66-17.07l-2.47-2.58
			c-0.49,1.2-1.1,2.96-1.85,5.28l-1.85,5.73c-1.01,3.07-1.52,5.62-1.52,7.64c0,2.1,0.36,3.84,1.07,5.22
			c0.71,1.39,2.21,3.28,4.49,5.67c0.22,0.22,0.56,0.58,1.01,1.07h-28.08c5.35-2.77,9.59-6.49,12.72-11.17
			c3.12-4.68,6.22-11.9,9.29-21.67l0.22-0.79c-1.98-1.68-4.85-2.71-8.59-3.09c2.06-3.07,3.65-6.27,4.77-9.6
			c0.52,0.49,0.84,0.79,0.96,0.9l2.53,2.36c0.86,0.82,1.89,1.67,3.09,2.53l1.01-2.47l-0.67-0.56c-1.87-1.65-3.44-2.98-4.72-3.99
			l-0.5-0.39l0.9-1.24c1.98,1.31,3.89,2.83,5.73,4.55l7.64-21l-5.95-6.4H590.18z M573.78,77.22l-8.93,23.58
			c2.84,2.92,5.3,5.8,7.36,8.65l2.58,3.59c0.04,0.04,0.22,0.28,0.56,0.73c0.34-0.34,0.52-0.54,0.56-0.62l0.79-0.96
			c0.11-0.15,0.32-0.39,0.62-0.73c-2.62-4.04-5.67-7.69-9.15-10.95l7.19-18.98L573.78,77.22z M576.31,83.73l-6.18,16.28
			c0.34,0.37,0.52,0.6,0.56,0.67l2.3,2.58c1.23,1.35,2.81,3.44,4.72,6.29l0.56,0.84c1.61-2.02,3.52-4.02,5.73-6.01L576.31,83.73z
			 M606.8,93.33c0.82,3.37,2.88,7.99,6.18,13.87c-0.82-0.11-1.29-0.17-1.4-0.17l-4.55-0.39c-2.06-0.19-3.56-0.28-4.49-0.28
			c-0.15,0-0.52,0.02-1.12,0.06l9.38,24.88l12.52,11.06H590.8l-1.07-1.52h29.82l-10.11-8.93l-10-26.45
			c1.27-0.34,2.73-0.51,4.38-0.51c2.02,0,4.27,0.17,6.74,0.51l-0.67-1.24c-2.4-4.42-4.01-8.4-4.83-11.96L606.8,93.33z"/>
		<path class="st2" d="M627.86,72.44c8.87-5.13,18.42-7.69,28.64-7.69c7.94,0,14.48,1.72,19.62,5.17c5.15,3.44,7.72,7.82,7.72,13.14
			c0,4.34-1.69,8.19-5.05,11.54c-3.37,3.35-7.97,5.78-13.81,7.27c2.58,7.11,6.09,14.04,10.53,20.78c4.44,6.74,8.88,11.9,13.34,15.5
			l-0.84,0.28c-5.58,1.91-11.04,4.6-16.4,8.09l-0.84,0.56l-0.28-1.8c-2.4-14.49-5.75-26.77-10.05-36.84l-0.22-0.56
			c-2.58,1.2-6.05,2.15-10.39,2.86l-0.45,0.06v21l9.88,10.56h-29.03l-0.9-1.52h26.73l-8.14-8.65v-22.63l1.18-0.17
			c4.27-0.45,7.84-1.29,10.73-2.53c-0.22-0.45-0.36-0.73-0.39-0.84l-0.56-1.63c-0.04-0.11-0.13-0.34-0.28-0.67
			c-2.32,0.67-6.7,1.4-13.14,2.19l-0.62,0.11v25.04l6.4,6.68H626.4l7.3-6.68V112.2l-0.45,0.06c-2.17,0.49-4.14,1.03-5.9,1.63
			l-0.45,0.17l-0.5-1.12c1.65-0.64,2.94-1.07,3.87-1.29l2.98-0.73l0.45-0.11v-2.92c-2.21,0-4.96,0.49-8.25,1.46l-0.62,0.22
			c0.07-0.52,0.45-1.74,1.12-3.65c0.07-0.15,0.34-0.99,0.79-2.53c0.04-0.11,0.09-0.28,0.17-0.51c1.69,0.11,3,0.17,3.93,0.17
			c1.01,0,1.95-0.06,2.81-0.17V75.25c-1.72-1.05-3.5-1.93-5.33-2.64L627.86,72.44z M644.82,70.98v30.27c1.08,0,2.11-0.09,3.09-0.28
			V73.34c2.06-0.56,4.53-0.84,7.41-0.84c7.3,0,12.26,2.4,14.88,7.19c-2.77-2.25-5.2-3.79-7.3-4.63c-2.1-0.84-4.6-1.26-7.52-1.26
			c-2.28,0-4.29,0.22-6.01,0.67v26.5l0.62-0.11c7.37-1.35,12.85-3.47,16.42-6.37c3.57-2.9,5.36-6.67,5.36-11.31
			c0-4.16-1.61-7.59-4.83-10.3c-3.22-2.71-7.28-4.07-12.19-4.07C650.83,68.79,647.51,69.52,644.82,70.98z M671.94,104.67
			c2.36,7.71,6.53,15.25,12.52,22.63c3.74,4.6,8.48,8.74,14.21,12.41c-8.57,2.28-16.62,5.76-24.15,10.44l-0.5,0.34l-1.12-0.9
			c7.15-4.68,14.77-8.12,22.85-10.33c-10.78-7.19-19.26-18.68-25.44-34.48l-0.34-0.95c11.46-4.34,17.18-10.97,17.18-19.88
			c0-3.67-1.48-7.67-4.44-12.02c3.78,3.44,5.67,7.82,5.67,13.14C688.39,93.69,682.91,100.22,671.94,104.67z"/>
	</g>
	<g>
	</g>
	<g>
	</g>
	<g>
	</g>
	<g>
	</g>
	<g>
	</g>
	<g>
	</g>
</g>
</svg>
